<svg version="1" xmlns="http://www.w3.org/2000/svg" viewBox="0 0 77 65.9"><g clip-rule="evenodd"><path fill-rule="evenodd" fill="#DE9F26" d="M48.9 5.5h10.8v11.9L48.9 9.1z"/><path fill-rule="evenodd" fill="#8FD19C" d="M2.5 62.4h72.1v3.2H2.5z"/><path fill-rule="evenodd" fill="#BF301F" d="M9 57.6h59.1v6.6H9z"/><path fill-rule="evenodd" fill="#B77F46" d="M9 56.1h59.1v1.5H9z"/><path fill-rule="evenodd" fill="#DFE9F2" d="M38.4 11.5l27.2 20.8v23.8H11.4v-24z"/><path fill-rule="evenodd" fill="#6EB8AE" d="M25.7 32.4h11.2v18.9H25.7V32.4zm14.3 0h11.2v18.9H40V32.4z"/><path fill-rule="evenodd" fill="#8FD19C" d="M36.9 34.1v17.2h-9.3V34.1h9.3zm5 0h9.3v17.2h-9.3V34.1z"/><path fill-rule="evenodd" fill="#B77F46" d="M11.4 35.2l27-20.6 27.2 20.7v-3L38.4 11.5l-27 20.6z"/><path fill-rule="evenodd" fill="#BF301F" d="M5.2 37.1l33.4-24.8 33 24.7 4.9-6.6L38.5.5.5 30.2z"/><path fill="none" stroke="#000" stroke-width=".72" stroke-miterlimit="22.926" d="M48.9 5.5h10.8v11.6l16.8 13.3-4.9 6.6-6-4.5v23.6H68v6.3h6.5v3.2h-72v-3.2H9v-6.3h2.4V32.5l-6.2 4.6-4.7-6.9L38.5.5l10.4 8.1z"/></g></svg>