<svg version="1" xmlns="http://www.w3.org/2000/svg" viewBox="0 0 65.6 65.9"><g clip-rule="evenodd"><g fill-rule="evenodd"><path fill="#DFE9F2" d="M23.1 65.6C32.5 65.5 40 63 45.9 58v-3.4c-3.4-2.3-7.6-4.7-12.7-7-2.3 6-5.6 10.5-10.1 13.2-4.4-2.8-7.8-7.2-10.1-13.2-5.1 2.3-9.3 4.7-12.7 7V58c5.9 4.9 13.5 7.5 22.8 7.6z"/><path fill="#224457" d="M11.5 48.2c2.5 6.4 6.1 11.2 11.6 14.7 5.3-3.4 9.3-8.4 11.8-14.6-.6-.3-1.1-.5-1.7-.8-2.3 6-5.6 10.5-10.1 13.2-4.4-2.8-7.8-7.2-10.1-13.2-.5.2-1 .5-1.5.7z"/></g><path fill-rule="evenodd" fill="#E7BA29" d="M15.4 17.2c-1.8 5-4.9 7.1-3.7 12.6.2 4.1 1.9 7.6 4.1 10.4 1.8 2.3 5.6 5.7 7.7 5.6-4.1-6.3-5.4-15.2-3.2-26.3-1.7-.5-3.3-1.3-4.9-2.3z"/><path fill-rule="evenodd" fill="#DE9F26" d="M16.1 40.7l-.1-.1v-.1l-.1-.1-.1-.1c.4 4-.8 6.7-2.7 7.3.1.2.1.4.2.6 6.1 1.9 10.4.8 12.7-3.4-.8.5-1.7.8-2.6 1.1-1.9.1-5.3-3-7.3-5.2z"/><path fill-rule="evenodd" fill="#E7BA29" d="M26 44.7c-2.3 4.2-6.6 5.3-12.7 3.4 2.3 5.7 5.6 9.9 9.8 12.6 4.4-2.8 7.7-7.1 10-13.1-1.2-1.4-1.9-4.6-1.6-7.9-1.5 2.1-3.4 3.8-5.5 5z"/><path fill-rule="evenodd" fill="#F3E03A" d="M20.3 19.6c-2.2 11.1-1.2 19.8 2.9 26.1l.3.1c6.9-.1 11.7-10.8 12.8-15.6-.6-7-.7-7.1-3.8-9-4 .1-8.1-.2-12.2-1.6z"/><path fill-rule="evenodd" fill="#AB7235" d="M36.1 17.1c-.2-.7-.5-1.3-.8-1.9-3.4-6.7-9.9-8.6-17.2-5.8-2.2.8-3.9 2.1-5.2 3.6-.4.5-.8 1-1.1 1.6-.4.7-.8 1.5-1 2.3-.2.5-.3 1-.4 1.6-.1.7-.2 1.5-.3 2.3v1.6c0 .8.1 1.5.2 2.3.1.5.2 1 .3 1.6.1.5.2 1 .3 1.4.1.3.2.6.2.9.1.5.3 1 .5 1.5 0-.5.1-1 .2-1.5.1-.8.3-1.6.5-2.3.1-.6.3-1.1.5-1.6.3-.9.7-1.7 1.2-2.3.5-.7 1-1.2 1.6-1.6.1-.1.2-.1.3-.2 0 .1.1.1.1.2.5.6 1.1 1.1 1.8 1.6 1.3.9 3 1.7 5.1 2.3 1.4.4 3 .8 4.7 1.1.6.1 1.3.3 1.9.4 2.7.3 5.4 1.9 6.7 4.1.9-4.3 1-10.2-.1-13.2z"/><path fill-rule="evenodd" fill="#81CCAC" d="M12.1 28c1 5 1.4 7.6 1 7.7-1.2.4-2.6-.1-3.4-1.2-.8-1.1-1-2.8-.5-4.2.5-1.3 1.6-2.2 2.9-2.3z"/><path fill-rule="evenodd" fill="#224457" d="M36.1 34.4c-1 2.2-2.5 3.8-4.5 4.9-2 1.1-4.5 1.6-7.4 1.6v-1.5c2.7 0 5-.5 6.7-1.4 1.7-.9 3-2.3 3.8-4.1l1.4.5z"/><path fill-rule="evenodd" fill="#81CCAC" d="M34.8 28c-1 5-1.4 7.6-1 7.7 1.2.4 2.6-.1 3.4-1.2.8-1.1 1-2.8.5-4.2-.4-1.3-1.6-2.2-2.9-2.3zm-6.6 12.7c-.6.1-1.3.2-1.9.2-.4 0-.9.1-1.4.1-.9 0-1.4-2 .2-2 .4 0 .7 0 1.1-.1.6 0 1.2-.1 1.7-.2l.3 2zm37-28c0-6.1-4.5-11.2-10.4-12.2-5.9.9-10.4 6-10.4 12.2 0 6.1 4.5 11.2 10.4 12.2 5.9-1 10.4-6.1 10.4-12.2z"/><path fill-rule="evenodd" fill="#224457" d="M44.5 12.7C44.5 6.6 49 1.5 54.9.5c-.6-.1-1.3-.2-2-.2-6.8 0-12.3 5.5-12.3 12.3 0 2.1.5 4.1 1.5 5.9l-2.4 8.1 8.7-2.5c1.4.6 3 .9 4.6.9.7 0 1.3-.1 2-.2-6.1-.9-10.5-6-10.5-12.1z"/><path fill-rule="evenodd" fill="#FFF" d="M52.5 14c1.4-1.5 2.6-2.8 3.6-3.8 0-.2-.1-.3-.1-.4-.3-1.1 0-2.5 1.3-3.8l.8-.6c.3-.3.8-.3 1.1 0 .3.3.3.8 0 1.1l-.8.6c-.8.8-1 1.6-.9 2.2l.3.6c.1.2.3.3.6.4.6.2 1.5 0 2.3-.7l.7-.5c.3-.3.8-.3 1.1.1.3.3.3.8-.1 1.1l-.7.5c-1.4 1.2-2.8 1.5-3.9 1.1-.3-.1-.5-.2-.8-.4-1 1.1-2.2 2.3-3.5 3.7.1.2.2.5.3.7.3 1.1 0 2.5-1.3 3.8l-.5.5c-.3.3-.8.3-1.1 0-.3-.3-.3-.8 0-1.1l.5-.5c.8-.8 1-1.6.9-2.2l-.3-.6c-.1-.2-.3-.3-.6-.4-.6-.2-1.5 0-2.3.7l-.6.6c-.3.3-.8.3-1.1-.1-.3-.3-.3-.8.1-1.1l.6-.6c1.4-1.2 2.8-1.5 3.9-1.1.2 0 .4.1.5.2z"/><path fill="none" stroke="#000" stroke-width=".72" stroke-miterlimit="22.926" d="M54.8.5c5.9.9 10.4 6 10.4 12.2 0 6.1-4.5 11.2-10.4 12.2-.6.1-1.3.2-2 .2-1.6 0-3.2-.3-4.6-.9l-8.7 2.5 2.4-8.1c-.9-1.7-1.5-3.8-1.5-5.9C40.4 5.9 45.9.4 52.7.4c.8 0 1.5 0 2.1.1zm-17 29.9c.5 1.4.3 3-.5 4.2-.5.7-1.2 1.1-1.9 1.3-.7 1-1.5 1.9-2.5 2.6-.4.7-.9 1.4-1.4 2.1-.1 3 .5 5.7 1.7 7.1v-.1c.6.3 1.1.5 1.6.8h.1c4.3 2.1 8 4.2 11 6.2V58c-5.9 5-13.4 7.5-22.8 7.6-9.4-.1-16.9-2.6-22.8-7.7v-3.4c3-2.1 6.7-4.2 11.2-6.3.5-.2 1-.5 1.5-.7 1.9-.6 3.1-3.3 2.7-7.3-1-1.3-2-2.8-2.7-4.5-1.2.4-2.6-.1-3.4-1.2-.8-1.1-1-2.8-.5-4.2.4-1.1 1.1-1.8 2-2.2l-.1-.4c-.1-.5-.2-1-.3-1.4-.1-.5-.2-1-.3-1.6-.1-.8-.2-1.6-.2-2.3v-1.6c0-.8.1-1.6.3-2.3.1-.5.2-1.1.4-1.6.3-.8.6-1.6 1-2.3.3-.5.7-1.1 1.1-1.6 1.3-1.5 3-2.7 5.2-3.6 7.3-2.8 13.8-.9 17.2 5.8.3.6.6 1.2.8 1.9 1 2.6 1 7.5.4 11.5.5.4.9 1.1 1.2 1.8z"/></g></svg>