<svg version="1" xmlns="http://www.w3.org/2000/svg" viewBox="0 0 56.9 65.2"><g fill-rule="evenodd" clip-rule="evenodd"><path fill="#DE9F26" d="M.4 14.5h56.2v45.9c0 2.5-2 4.5-4.5 4.5H4.9c-2.5 0-4.5-2-4.5-4.5V14.5z"/><path fill="#AB7235" d="M4.6.4h47.7l-5.8 6.8v7.3H10.4V7.2z"/><path fill="#B77F46" d="M10.4 14.5H.4l10-7.3zm36.1 0h10l-10-7.3z"/><path fill="#EBCC39" d="M4.6.4l5.8 6.8-5.8 4.2zm47.7 0l-5.8 6.8 5.8 4.2z"/><path fill="#B77F46" d="M10 28.6c0-.7.6-1.2 1.3-1.1.7 0 1.2.6 1.1 1.3-.2 3 .5 5.8 1.8 8.4 1.3 2.5 3.3 4.7 5.9 6.2 2.5 1.5 5.4 2.3 8.2 2.3 2.9 0 5.7-.8 8.2-2.3 2.5-1.5 4.5-3.7 5.9-6.2 1.3-2.5 2-5.4 1.8-8.4 0-.7.5-1.2 1.1-1.3.7 0 1.2.5 1.3 1.1.2 3.4-.6 6.7-2.1 9.6-1.5 2.9-3.8 5.4-6.8 7.2-2.9 1.8-6.2 2.6-9.5 2.6s-6.6-.9-9.5-2.6c-2.9-1.8-5.2-4.3-6.8-7.2-1.3-2.9-2.1-6.2-1.9-9.6z"/><circle fill="#AB7235" cx="11.3" cy="26.7" r="1.7"/><circle fill="#AB7235" cx="45.5" cy="26.7" r="1.7"/><path fill="#FFF" d="M10.1 27c0-.7.6-1.2 1.3-1.1.7 0 1.2.6 1.1 1.3-.2 3 .5 5.8 1.8 8.4 1.3 2.5 3.3 4.7 5.9 6.2 2.5 1.5 5.4 2.3 8.2 2.3 2.9 0 5.7-.8 8.2-2.3 2.5-1.5 4.5-3.7 5.9-6.2 1.3-2.5 2-5.4 1.8-8.4 0-.7.5-1.2 1.1-1.3.7 0 1.2.5 1.3 1.1.2 3.4-.6 6.7-2.1 9.6-1.5 2.9-3.8 5.4-6.8 7.2-2.9 1.8-6.2 2.6-9.5 2.6s-6.6-.9-9.5-2.6c-2.9-1.8-5.2-4.3-6.8-7.2-1.3-2.8-2.1-6.2-1.9-9.6z"/><path d="M52.6 11.2l4.3 3.1v46c0 1.3-.6 2.6-1.4 3.5-.9.9-2.1 1.4-3.5 1.4H4.9c-1.3 0-2.6-.6-3.5-1.4-.8-.9-1.4-2.1-1.4-3.5v-46l4.3-3.1V0h48.3v11.2zm3.6 3.5l-4.3-3.1V.7H5v10.8L.7 14.6v45.7c0 1.1.5 2.2 1.2 2.9.8.8 1.8 1.2 2.9 1.2H52c1.1 0 2.2-.5 2.9-1.2.8-.8 1.2-1.8 1.2-2.9V14.7z"/></g></svg>