<svg version="1" xmlns="http://www.w3.org/2000/svg" viewBox="0 0 63.5 57.7"><g clip-rule="evenodd"><path fill-rule="evenodd" fill="#DFE9F2" d="M34.5 6.6c10.4 0 18.9 5.6 18.9 12.5v.8c5.8 1.9 9.9 5.9 9.9 10.5 0 4.1-3.2 7.7-8 9.8h-48c-4.2-2.1-7-5.5-7-9.3.1-6 6.7-10.9 15.3-11.7V19c0-6.8 8.5-12.4 18.9-12.4z"/><path fill-rule="evenodd" fill="#FFF" d="M34.5 6.6c10.4 0 18.9 5.6 18.9 12.5v.8c5.5 1.8 9.4 5.4 9.8 9.7v-1c0-5.4-4-10.2-9.9-12.4v-1C53.3 7 44.8.4 34.4.4 24.1.4 15.6 7 15.6 15.1v.2C7 16.3.4 22.1.4 29.1v.9c.6-5.5 7-10 15.2-10.8V19c0-6.8 8.5-12.4 18.9-12.4z"/><path fill="none" stroke="#000" stroke-width=".72" stroke-miterlimit="22.926" d="M34.5.4C44.9.4 53.4 7 53.4 15.2v1c5.8 2.3 9.9 7 9.9 12.4 0 4.8-3.2 9.1-8 11.6h-48c-4.2-2.5-7-6.5-7-11 0-7 6.6-12.8 15.2-13.7v-.2C15.6 7 24.1.4 34.5.4z"/></g><g clip-rule="evenodd"><path fill-rule="evenodd" fill="#BF301F" d="M29.9 23.2h5.9V25h-5.9zm0-3.6h5.9v1.8h-5.9zm0-3.5h5.9v1.8h-5.9z"/><path fill-rule="evenodd" fill="#DE9F26" d="M35.7 35.5v10.3h1l2-1.6c.5-.4 1.1-.7 1.7-.7.6 0 1.2.3 1.8.9.5.6.8 1.3.8 2.1 0 .7-.3 1.5-.8 2l-7.6 8-.1.1c-.5.5-1.2.7-1.8.7-.6 0-1.3-.2-1.8-.7l-.1-.1-7.6-8c-.5-.5-.8-1.2-.8-2s.3-1.5.8-2.2c.4-.5 1-.8 1.6-1 .6-.1 1.3 0 1.7.3.9.6 1.2.9 1.7 1.3.2.2.4.4.7.6l.8.7V26.9h5.9v8.6z"/><path fill-rule="evenodd" fill="#BF301F" d="M35.7 35.5v10.3h1l2-1.6c.5-.4 1.1-.7 1.7-.7.6 0 1.2.3 1.8.9.1.1.1.1.1.2s-.1.1-.1.1l-7.6 8-.1.1c-.5.5-1.2.7-1.8.7-.6 0-1.3-.2-1.8-.7l-.1-.1-7.6-8-.1-.1c0-.1.1-.1.1-.2.4-.5 1-.8 1.6-1 .6-.1 1.3 0 1.7.3.9.6 1.2.9 1.7 1.3.2.2.4.4.7.6l.8.7V26.8h5.9v8.7z"/><path fill="none" stroke="#000" stroke-width=".72" stroke-miterlimit="22.926" d="M35.7 45.8h1l2-1.6c.5-.4 1.1-.7 1.7-.7.6 0 1.2.3 1.8.9 0 .1.1.1.1.2.4.6.7 1.2.7 1.9s-.3 1.5-.8 2l-7.6 8-.1.1c-.5.5-1.2.7-1.8.7-.6 0-1.3-.2-1.8-.7l-.1-.1-7.6-8c-.5-.5-.8-1.2-.8-2 0-.7.2-1.4.6-2 0-.1.1-.1.1-.2.4-.5 1-.8 1.6-1 .6-.1 1.3 0 1.7.3.9.6 1.2.9 1.7 1.3.2.2.4.4.7.6l.8.7V26.9h5.9v18.9h.2zm-5.8-29.7h5.8V18h-5.8v-1.9zm0 3.5h5.8v1.8h-5.8v-1.8zm0 3.6h5.8v1.9h-5.8v-1.9z"/></g></svg>