<svg version="1" xmlns="http://www.w3.org/2000/svg" viewBox="0 0 55.3 69.7"><g clip-rule="evenodd"><path fill-rule="evenodd" fill="#AB7235" d="M37.4 42.8l3.2 3.5-1.5 1.4c1 1.6 1.6 3.3 1.8 5l2.1.1-.2 4.7-2.1-.1c-.4 1.7-1.1 3.4-2.2 4.8l1.4 1.5-3.5 3.2-1.4-1.5c-1.6 1-3.3 1.6-5 1.8l-.1 2.1-4.7-.2.1-2.1c-1.7-.4-3.4-1.1-4.8-2.2L19 66.2l-3.2-3.5 1.5-1.4c-1-1.6-1.6-3.3-1.8-5l-2.1-.1.2-4.7 2.1.1c.4-1.7 1.1-3.4 2.2-4.8l-1.4-1.5 3.5-3.2 1.4 1.5c1.6-1 3.3-1.6 5-1.8l.1-2.1 4.7.2-.1 2.1c1.7.4 3.4 1.1 4.8 2.2l1.5-1.4zm-4.2 7.1c-2.5-2.8-6.8-2.9-9.6-.4s-2.9 6.8-.4 9.6 6.8 2.9 9.6.4 2.9-6.8.4-9.6z"/><path fill-rule="evenodd" fill="#DE9F26" d="M38.2 65.3L36.4 67 35 65.4c-1.6 1-3.3 1.6-5 1.8l-.1 2.1-4.7-.2.1-2.1c-1.7-.4-3.4-1.1-4.8-2.2L19 66.2l-3.2-3.5 1.5-1.4c-1-1.6-1.6-3.3-1.8-5l-2.1-.1.2-4.7 2.1.1c.4-1.7 1.1-3.4 2.2-4.8l-1.4-1.5 1.8-1.7 5.4 5.8-.1.1c-2.8 2.5-2.9 6.8-.4 9.6s6.8 2.9 9.6.4l.1-.1 5.3 5.9z"/><path fill-rule="evenodd" fill="#224457" d="M54.5 14.2l.4 5.7-2.5.2c-.2 2.2-.9 4.3-2 6.2l1.9 1.6-3.7 4.3-1.9-1.6c-1.7 1.3-3.6 2.4-5.8 2.9l.2 2.5-5.7.4-.2-2.5c-2.2-.2-4.3-.9-6.2-2l-1.6 1.9-4.3-3.7 1.6-1.9c-1.3-1.7-2.4-3.6-2.9-5.8l-2.5.2-.5-5.6 2.5-.2c.2-2.2.9-4.3 2-6.2L21.4 9l3.7-4.3L27 6.3c1.7-1.3 3.6-2.4 5.8-2.9L32.6.9l5.7-.4.2 2.5c2.2.2 4.3.9 6.2 2l1.6-2 4.3 3.7L49 8.6c1.3 1.7 2.4 3.6 2.9 5.8l2.6-.2zm-9.4 3.6c-.4-4.5-4.3-7.9-8.9-7.6-4.5.4-7.9 4.3-7.6 8.9.4 4.5 4.3 7.9 8.9 7.6 4.6-.4 8-4.4 7.6-8.9z"/><path fill-rule="evenodd" fill="#6EB8AE" d="M54.7 16.9l.2 3-2.5.2c-.2 2.2-.9 4.3-2 6.2l1.9 1.6-3.7 4.3-1.9-1.6c-1.7 1.3-3.6 2.4-5.8 2.9l.2 2.5-5.7.4-.2-2.5c-2.2-.2-4.3-.9-6.2-2l-1.6 1.9-4.3-3.7 1.6-1.9c-1.3-1.7-2.4-3.6-2.9-5.8l-2.5.2-.2-3 9.6-.7v.2c.4 4.5 4.3 7.9 8.9 7.6 4.5-.4 7.9-4.3 7.6-8.9v-.1l9.5-.8z"/><path fill-rule="evenodd" fill="#BF301F" d="M4.3 39.5l-2.2-2.2 1-1c-.7-1-1.1-2.1-1.4-3.3H.3v-3.1h1.4c.2-1.2.7-2.3 1.4-3.3l-1-1 2.2-2.2 1 1c1-.7 2.1-1.1 3.3-1.4v-1.4h3.1V23c1.2.2 2.3.7 3.3 1.4l1-1 2.2 2.2-1 1c.7 1 1.1 2.1 1.4 3.3H20V33h-1.4c-.2 1.2-.7 2.3-1.4 3.3l1 1-2.2 2.2-1-1c-1 .7-2.1 1.1-3.3 1.4v1.4H8.6v-1.4c-1.2-.2-2.3-.7-3.3-1.4l-1 1zm2.6-4.8c1.8 1.8 4.6 1.8 6.4 0 1.8-1.8 1.8-4.6 0-6.4-1.8-1.8-4.6-1.8-6.4 0-1.7 1.7-1.7 4.6 0 6.4z"/><path fill-rule="evenodd" fill="#8FD19C" d="M3.2 24.6l1.2-1.2 1 1c1-.7 2.1-1.1 3.3-1.4v-1.4h3.1V23c1.2.2 2.3.7 3.3 1.4l1-1 2.2 2.2-1 1c.7 1 1.1 2.1 1.4 3.3h1.4V33h-1.4c-.2 1.2-.7 2.3-1.4 3.3l1 1-1.3 1.1-3.7-3.7.1-.1c1.8-1.8 1.8-4.6 0-6.4-1.8-1.8-4.6-1.8-6.4 0l-.1.1-3.7-3.7z"/><path fill="none" stroke="#000" stroke-width=".72" stroke-miterlimit="22.926" d="M13.5 54l.1-2.5 2.1.1c.4-1.8 1.2-3.4 2.2-4.8l-1.4-1.5 3.5-3.2 1.4 1.5c1.5-.9 3.2-1.6 5-1.8l.1-2.1 4.7.2-.1 2.1c1.8.4 3.4 1.2 4.8 2.2l1.5-1.4 3.2 3.5-1.5 1.4c.9 1.5 1.6 3.2 1.8 5l2.1.1-.1 2.5-.1 2.2-2.1-.1c-.4 1.8-1.2 3.4-2.2 4.8l1.4 1.5-3.5 3.2-1.4-1.5c-1.5.9-3.2 1.6-5 1.8l-.1 2.1-4.7-.2.1-2.1c-1.8-.4-3.4-1.2-4.8-2.2L19 66.2l-3.2-3.5 1.5-1.4c-.9-1.5-1.6-3.2-1.8-5l-2.1-.1.1-2.2zm5.8-31.4l-.5-5.6 2.5-.2c.2-2.2.9-4.3 2-6.2L21.4 9l3.7-4.3L27 6.3c1.7-1.3 3.6-2.4 5.8-2.9L32.6.9l2.7-.2 3-.2.2 2.5c2.2.2 4.3.9 6.2 2l1.6-2 4.3 3.7L49 8.6c1.3 1.7 2.4 3.6 2.9 5.8l2.5-.2.4 5.7-2.5.2c-.2 2.2-.9 4.3-2 6.2l1.9 1.6-3.7 4.3-1.9-1.6c-1.7 1.3-3.6 2.4-5.8 2.9L41 36l-3 .2-2.7.2-.2-2.5c-2.2-.2-4.3-.9-6.2-2l-1.6 1.9-4.3-3.7 1.6-1.9c-1.3-1.7-2.4-3.6-2.9-5.8l-2.4.2zM2.1 37.3l1-1c-.7-1-1.1-2.1-1.4-3.3H.3v-3.1h1.4c.2-1.2.7-2.3 1.4-3.3l-1-1 2.2-2.2 1 1c1-.7 2.1-1.1 3.3-1.4v-1.4h3.1V23c1.2.2 2.3.7 3.3 1.4l1-1 1.2 1.2 1 1-1 1c.7 1 1.1 2.1 1.4 3.3H20V33h-1.4c-.2 1.2-.7 2.3-1.4 3.3l1 1-2.2 2.2-1-1c-1 .7-2.1 1.1-3.3 1.4v1.4H8.6v-1.4c-1.2-.2-2.3-.7-3.3-1.4l-1 1-1-1-1.2-1.2z"/></g></svg>