<svg version="1" xmlns="http://www.w3.org/2000/svg" viewBox="0 0 53.7 72.2"><g clip-rule="evenodd" stroke="#000" stroke-miterlimit="22.926"><path fill-rule="evenodd" fill="#DFE9F2" stroke-width=".72" d="M1.5.4h41.8c.6 0 1.1.5 1.1 1.1v62.3c0 .6-.5 1.1-1.1 1.1H1.5c-.6 0-1.1-.5-1.1-1.1V1.5C.4.9.9.4 1.5.4z"/><path fill-rule="evenodd" fill="#DFE9F2" stroke-width=".72" d="M6.1 4.4h41.8c.6 0 1.1.5 1.1 1.1v62.3c0 .6-.5 1.1-1.1 1.1H6.1c-.6 0-1.1-.5-1.1-1.1V5.5c0-.6.5-1.1 1.1-1.1z"/><path fill-rule="evenodd" fill="#DFE9F2" stroke-width=".72" d="M10.5 7.4h41.8c.6 0 1.1.5 1.1 1.1v62.3c0 .6-.5 1.1-1.1 1.1H10.5c-.6 0-1.1-.5-1.1-1.1V8.5c0-.6.5-1.1 1.1-1.1z"/><path fill="none" stroke-width="1.68" d="M45.8 46.1H43m-2 0H17m28.8-10.2H43m-2 0H17m28.8 15.3h-24m-2.1 0H17m28.8-20.4h-24m-2.1 0H17M45.8 41h-24m-2.1 0H17"/><circle fill-rule="evenodd" fill="#BF301F" stroke-width=".48" cx="31.4" cy="18.8" r="2.1"/><path fill-rule="evenodd" fill="#8FD19C" stroke-width=".72" d="M31.2 53.9l4.2 4.1-6.5 6.6-.4-3.7-3.8-.4zm8.3 0L35.4 58l6.4 6.6.4-3.7 3.8-.4z"/><circle fill-rule="evenodd" fill="#BF301F" stroke-width=".72" cx="35.2" cy="52.1" r="6.2"/></g></svg>